 <svg version="1.0" xmlns="http://www.w3.org/2000/svg" width="700.000000pt" height="694.000000pt" viewBox="0 0 700.000000 694.000000" preserveAspectRatio="xMidYMid meet">
<metadata>
Created by potrace 1.12, written by Peter Selinger 2001-2015
</metadata>
<g transform="translate(0.000000,694.000000) scale(0.100000,-0.100000)" fill="#000000" stroke="none">
<path d="M2290 6880 c-223 -4 -436 -12 -475 -18 -70 -10 -267 -67 -360 -104
-231 -93 -355 -157 -458 -236 -45 -34 -98 -73 -117 -86 -50 -34 -278 -260
-333 -331 -148 -189 -310 -508 -361 -710 -14 -55 -32 -119 -40 -143 -39 -109
-41 -204 -41 -1777 0 -1629 0 -1634 50 -1795 13 -41 33 -114 44 -162 11 -48
32 -109 45 -135 14 -26 34 -72 46 -102 12 -30 29 -66 39 -80 10 -14 32 -53 48
-86 43 -88 185 -295 223 -325 10 -8 31 -31 47 -51 15 -19 53 -57 83 -83 30
-26 78 -69 105 -94 96 -89 163 -134 380 -260 39 -22 88 -45 110 -52 22 -7 65
-25 96 -41 31 -15 93 -37 137 -49 45 -11 94 -25 109 -31 16 -6 71 -20 123 -32
94 -21 113 -21 1673 -24 1537 -4 1580 -3 1700 16 148 24 374 85 439 117 26 13
74 34 105 46 76 28 365 194 388 222 6 7 39 37 75 67 106 87 270 250 311 309
21 30 60 84 86 120 25 36 63 94 83 130 20 36 41 74 48 85 26 47 98 228 128
325 18 58 39 124 48 146 8 23 22 111 31 195 13 131 15 374 15 1630 0 1591 -3
1707 -51 1838 -12 31 -35 101 -51 156 -17 55 -40 118 -53 140 -12 22 -30 64
-40 93 -9 29 -35 83 -57 120 -69 113 -146 230 -158 237 -6 3 -29 32 -52 63
-47 64 -224 243 -283 287 -22 16 -53 41 -70 56 -73 66 -253 173 -365 215 -36
14 -84 36 -106 49 -23 14 -66 31 -96 39 -29 8 -105 31 -168 50 -92 28 -145 37
-265 46 -183 14 -2221 21 -2815 10z m2701 -190 c185 -11 227 -19 409 -69 193
-54 398 -156 578 -288 95 -69 308 -282 388 -387 61 -81 139 -208 175 -286 11
-25 31 -67 45 -95 13 -27 46 -119 74 -204 40 -122 53 -178 63 -275 9 -91 12
-491 12 -1601 0 -1622 -1 -1666 -55 -1825 -16 -47 -36 -111 -44 -142 -9 -31
-32 -90 -51 -130 -19 -40 -35 -78 -35 -84 0 -7 -15 -34 -34 -61 -19 -27 -46
-72 -60 -99 -15 -27 -43 -70 -64 -95 -20 -25 -65 -82 -99 -126 -72 -94 -239
-253 -311 -297 -28 -17 -99 -62 -159 -100 -59 -37 -141 -81 -181 -97 -41 -16
-91 -38 -113 -49 -21 -11 -76 -29 -121 -40 -46 -11 -105 -27 -133 -35 -141
-44 -161 -45 -1752 -45 -1527 -1 -1606 1 -1738 35 -188 49 -285 79 -315 97
-19 11 -60 29 -90 39 -30 11 -81 37 -115 58 -33 21 -105 66 -160 101 -241 152
-533 496 -645 760 -61 143 -70 171 -110 335 -33 135 -43 200 -51 315 -13 212
-12 2829 2 2987 10 129 14 147 67 353 47 184 155 412 272 575 115 160 386 415
523 494 23 13 65 38 92 55 28 18 66 38 85 46 19 7 64 28 100 45 66 33 273 94
391 115 35 7 116 15 179 20 183 11 2783 11 2981 0z"></path>
<path d="M1853 4553 c-60 -12 -85 -112 -39 -157 18 -19 38 -25 97 -31 41 -3
803 -5 1694 -3 1542 3 1622 4 1648 21 39 25 51 63 37 110 -21 72 107 67 -1747
66 -917 -1 -1678 -4 -1690 -6z"></path>
<path d="M1821 3363 c-26 -21 -43 -86 -31 -117 20 -54 -92 -51 1724 -54 1189
-2 1692 0 1719 8 20 6 44 22 53 35 22 34 10 99 -23 125 -25 20 -40 20 -1723
20 -1602 0 -1699 -1 -1719 -17z"></path>
<path d="M1850 2203 c-39 -14 -60 -46 -60 -90 0 -61 30 -89 101 -98 30 -3 792
-5 1694 -3 1380 3 1644 5 1667 17 51 26 61 117 16 157 -19 18 -80 19 -1712 21
-930 1 -1698 -1 -1706 -4z"></path>
</g>
</svg>